<svg width="1440" height="1070" viewBox="0 0 1440 1070" fill="none" xmlns="http://www.w3.org/2000/svg">
<path opacity="0.6" fill-rule="evenodd" clip-rule="evenodd" d="M272.5 1380.45C519.647 1380.45 720 1180.09 720 932.945C720 800.821 401.153 910.361 310.095 828.445C230.823 757.132 387.523 485.445 272.5 485.445C25.3526 485.445 -175 685.798 -175 932.945C-175 1180.09 25.3526 1380.45 272.5 1380.45Z" fill="#00B87E"/>
<path opacity="0.541829" fill-rule="evenodd" clip-rule="evenodd" d="M864.469 -208.47C814.503 74.8991 1003.71 345.12 1287.08 395.086C1438.57 421.797 1377.44 34.0751 1489.77 -53.7672C1587.56 -130.24 1867.38 104.352 1890.64 -27.5285C1940.6 -310.897 1751.39 -581.118 1468.02 -631.084C1184.66 -681.05 914.435 -491.839 864.469 -208.47Z" fill="#00B87E"/>
<path opacity="0.6" fill-rule="evenodd" clip-rule="evenodd" d="M219.512 -233.502C-12.7303 -148.973 -132.476 107.822 -47.9461 340.064C-2.75693 464.221 259.396 252.235 372.979 298.067C471.861 337.966 417.534 646.863 525.62 607.523C757.863 522.993 877.608 266.199 793.079 33.9563C708.549 -198.286 451.755 -318.032 219.512 -233.502Z" fill="#00B87E"/>
<path opacity="0.6" fill-rule="evenodd" clip-rule="evenodd" d="M2006.38 1032.4C2061.52 719.664 1852.7 421.436 1539.96 366.291C1372.77 336.811 1440.24 764.72 1316.27 861.667C1208.34 946.065 899.512 687.158 873.848 832.708C818.703 1145.45 1027.53 1443.68 1340.26 1498.82C1653 1553.96 1951.23 1345.14 2006.38 1032.4Z" fill="#00B87E"/>
</svg>
